<svg version="1.1" id="Layer_1" xmlns="http://www.w3.org/2000/svg" xmlns:xlink="http://www.w3.org/1999/xlink" x="0px" y="0px"
	 width="96px" height="96px" viewBox="0 0 96 96" enable-background="new 0 0 96 96" xml:space="preserve">
<path fill="#FFFFFF" d="M40.124,16.98C40.042,17.979,40,18.986,40,20c0,19.852,16.148,36,36,36c1.014,0,2.021-0.041,3.02-0.124
	C75.501,69.725,62.928,80,48,80c-17.645,0-32-14.355-32-32C16,33.072,26.275,20.499,40.124,16.98 M48,8C25.909,8,8,25.909,8,48
	c0,22.092,17.909,40,40,40c22.092,0,40-17.908,40-40c0-0.893-0.04-1.775-0.098-2.654C84.29,47.045,80.257,48,76,48
	c-15.464,0-28-12.536-28-28c0-4.257,0.955-8.29,2.654-11.902C49.775,8.04,48.893,8,48,8L48,8z"/>
</svg>
