<svg version="1.1" id="Layer_1" xmlns="http://www.w3.org/2000/svg" xmlns:xlink="http://www.w3.org/1999/xlink" x="0px" y="0px"
	 width="96px" height="96px" viewBox="0 0 96 96" enable-background="new 0 0 96 96" xml:space="preserve">
<path fill="#FFFFFF" d="M52,4v8c0,2.209-1.791,4-4,4s-4-1.791-4-4V4c0-2.209,1.791-4,4-4S52,1.791,52,4z M48,80
	c-2.209,0-4,1.791-4,4v8c0,2.209,1.791,4,4,4s4-1.791,4-4v-8C52,81.791,50.209,80,48,80z M14.059,14.059
	c-1.562,1.562-1.562,4.095,0,5.657l5.657,5.657c1.562,1.562,4.095,1.562,5.657,0c1.562-1.562,1.562-4.096,0-5.657l-5.657-5.657
	C18.153,12.497,15.621,12.497,14.059,14.059z M70.627,70.627c-1.562,1.562-1.562,4.096,0,5.657l5.657,5.657
	c1.562,1.562,4.095,1.562,5.657,0c1.562-1.562,1.562-4.095,0-5.657l-5.657-5.657C74.722,69.065,72.189,69.065,70.627,70.627z M0,48
	c0,2.209,1.791,4,4,4h8c2.209,0,4-1.791,4-4s-1.791-4-4-4H4C1.791,44,0,45.791,0,48z M80,48c0,2.209,1.791,4,4,4h8
	c2.209,0,4-1.791,4-4s-1.791-4-4-4h-8C81.791,44,80,45.791,80,48z M14.059,81.941c1.562,1.562,4.095,1.562,5.657,0l5.656-5.657
	c1.562-1.562,1.562-4.095,0-5.657c-1.562-1.562-4.094-1.562-5.656,0l-5.657,5.657C12.497,77.847,12.497,80.379,14.059,81.941z
	 M70.627,25.373c1.562,1.562,4.095,1.562,5.657,0l5.657-5.657c1.562-1.562,1.562-4.095,0-5.657c-1.562-1.562-4.095-1.562-5.657,0
	l-5.657,5.657C69.065,21.277,69.065,23.811,70.627,25.373z M72,48c0,13.255-10.745,24-24,24S24,61.255,24,48s10.745-24,24-24
	S72,34.745,72,48z M64,48c0-8.837-7.163-16-16-16s-16,7.163-16,16s7.163,16,16,16S64,56.837,64,48z"/>
</svg>
